<mxfile host="app.diagrams.net" agent="Mozilla/5.0 (Windows NT 10.0; Win64; x64) AppleWebKit/537.36 (KHTML, like Gecko) Chrome/128.0.0.0 Safari/537.36" version="24.7.10">
  <diagram name="Halaman-1" id="vi26fd0FLSIv3fkLlB1a">
    <mxGraphModel dx="794" dy="454" grid="1" gridSize="10" guides="1" tooltips="1" connect="1" arrows="1" fold="1" page="0" pageScale="1" pageWidth="827" pageHeight="1169" math="0" shadow="0">
      <root>
        <mxCell id="0" />
        <mxCell id="1" parent="0" />
        <mxCell id="CZ2UjE0eVjBWocA2L3Z2-1" value="Actor" style="shape=umlActor;verticalLabelPosition=bottom;verticalAlign=top;html=1;outlineConnect=0;" vertex="1" parent="1">
          <mxGeometry x="50" y="150" width="30" height="60" as="geometry" />
        </mxCell>
        <mxCell id="CZ2UjE0eVjBWocA2L3Z2-9" style="edgeStyle=orthogonalEdgeStyle;rounded=0;orthogonalLoop=1;jettySize=auto;html=1;" edge="1" parent="1" source="CZ2UjE0eVjBWocA2L3Z2-2">
          <mxGeometry relative="1" as="geometry">
            <mxPoint x="280" y="220" as="targetPoint" />
          </mxGeometry>
        </mxCell>
        <mxCell id="CZ2UjE0eVjBWocA2L3Z2-2" value="&lt;h3&gt;Login&lt;/h3&gt;" style="text;html=1;align=center;verticalAlign=middle;resizable=0;points=[];autosize=1;strokeColor=none;fillColor=none;" vertex="1" parent="1">
          <mxGeometry x="220" y="60" width="60" height="60" as="geometry" />
        </mxCell>
        <mxCell id="CZ2UjE0eVjBWocA2L3Z2-4" style="edgeStyle=orthogonalEdgeStyle;rounded=0;orthogonalLoop=1;jettySize=auto;html=1;entryX=0.016;entryY=0.477;entryDx=0;entryDy=0;entryPerimeter=0;" edge="1" parent="1" source="CZ2UjE0eVjBWocA2L3Z2-1" target="CZ2UjE0eVjBWocA2L3Z2-2">
          <mxGeometry relative="1" as="geometry" />
        </mxCell>
        <mxCell id="CZ2UjE0eVjBWocA2L3Z2-5" value="" style="endArrow=none;dashed=1;html=1;dashPattern=1 3;strokeWidth=2;rounded=0;" edge="1" parent="1">
          <mxGeometry width="50" height="50" relative="1" as="geometry">
            <mxPoint x="290" y="90" as="sourcePoint" />
            <mxPoint x="350" y="90" as="targetPoint" />
          </mxGeometry>
        </mxCell>
        <mxCell id="CZ2UjE0eVjBWocA2L3Z2-6" value="&lt;h3&gt;Regiater&lt;/h3&gt;" style="text;html=1;align=center;verticalAlign=middle;resizable=0;points=[];autosize=1;strokeColor=none;fillColor=none;" vertex="1" parent="1">
          <mxGeometry x="350" y="60" width="80" height="60" as="geometry" />
        </mxCell>
        <mxCell id="CZ2UjE0eVjBWocA2L3Z2-11" style="edgeStyle=orthogonalEdgeStyle;rounded=0;orthogonalLoop=1;jettySize=auto;html=1;" edge="1" parent="1" source="CZ2UjE0eVjBWocA2L3Z2-7" target="CZ2UjE0eVjBWocA2L3Z2-10">
          <mxGeometry relative="1" as="geometry" />
        </mxCell>
        <mxCell id="CZ2UjE0eVjBWocA2L3Z2-13" style="edgeStyle=orthogonalEdgeStyle;rounded=0;orthogonalLoop=1;jettySize=auto;html=1;" edge="1" parent="1" source="CZ2UjE0eVjBWocA2L3Z2-7">
          <mxGeometry relative="1" as="geometry">
            <mxPoint x="480" y="290" as="targetPoint" />
          </mxGeometry>
        </mxCell>
        <mxCell id="CZ2UjE0eVjBWocA2L3Z2-7" value="&lt;h3&gt;homepage&lt;/h3&gt;" style="text;html=1;align=center;verticalAlign=middle;resizable=0;points=[];autosize=1;strokeColor=none;fillColor=none;" vertex="1" parent="1">
          <mxGeometry x="350" y="200" width="90" height="60" as="geometry" />
        </mxCell>
        <mxCell id="CZ2UjE0eVjBWocA2L3Z2-10" value="&lt;h3&gt;Navbar&lt;/h3&gt;" style="text;html=1;align=center;verticalAlign=middle;resizable=0;points=[];autosize=1;strokeColor=none;fillColor=none;" vertex="1" parent="1">
          <mxGeometry x="210" y="283" width="70" height="60" as="geometry" />
        </mxCell>
        <mxCell id="CZ2UjE0eVjBWocA2L3Z2-16" style="edgeStyle=orthogonalEdgeStyle;rounded=0;orthogonalLoop=1;jettySize=auto;html=1;" edge="1" parent="1" source="CZ2UjE0eVjBWocA2L3Z2-14" target="CZ2UjE0eVjBWocA2L3Z2-15">
          <mxGeometry relative="1" as="geometry" />
        </mxCell>
        <mxCell id="CZ2UjE0eVjBWocA2L3Z2-14" value="&lt;h3&gt;Beranda&lt;/h3&gt;" style="text;html=1;align=center;verticalAlign=middle;resizable=0;points=[];autosize=1;strokeColor=none;fillColor=none;" vertex="1" parent="1">
          <mxGeometry x="440" y="283" width="80" height="60" as="geometry" />
        </mxCell>
        <mxCell id="CZ2UjE0eVjBWocA2L3Z2-19" style="edgeStyle=orthogonalEdgeStyle;rounded=0;orthogonalLoop=1;jettySize=auto;html=1;" edge="1" parent="1" source="CZ2UjE0eVjBWocA2L3Z2-15">
          <mxGeometry relative="1" as="geometry">
            <mxPoint x="650" y="470" as="targetPoint" />
          </mxGeometry>
        </mxCell>
        <mxCell id="CZ2UjE0eVjBWocA2L3Z2-21" style="edgeStyle=orthogonalEdgeStyle;rounded=0;orthogonalLoop=1;jettySize=auto;html=1;" edge="1" parent="1" source="CZ2UjE0eVjBWocA2L3Z2-15" target="CZ2UjE0eVjBWocA2L3Z2-20">
          <mxGeometry relative="1" as="geometry" />
        </mxCell>
        <mxCell id="CZ2UjE0eVjBWocA2L3Z2-15" value="&lt;h3&gt;pilih kategori brand nike&lt;/h3&gt;" style="text;html=1;align=center;verticalAlign=middle;resizable=0;points=[];autosize=1;strokeColor=none;fillColor=none;" vertex="1" parent="1">
          <mxGeometry x="385" y="380" width="190" height="60" as="geometry" />
        </mxCell>
        <mxCell id="CZ2UjE0eVjBWocA2L3Z2-17" value="&lt;h3&gt;deskripsi kategori brand nike&lt;/h3&gt;" style="text;html=1;align=center;verticalAlign=middle;resizable=0;points=[];autosize=1;strokeColor=none;fillColor=none;" vertex="1" parent="1">
          <mxGeometry x="530" y="480" width="220" height="60" as="geometry" />
        </mxCell>
        <mxCell id="CZ2UjE0eVjBWocA2L3Z2-20" value="&lt;h3&gt;Pesan&lt;/h3&gt;" style="text;html=1;align=center;verticalAlign=middle;resizable=0;points=[];autosize=1;strokeColor=none;fillColor=none;" vertex="1" parent="1">
          <mxGeometry x="450" y="543" width="60" height="60" as="geometry" />
        </mxCell>
        <mxCell id="CZ2UjE0eVjBWocA2L3Z2-22" value="&lt;h3&gt;metode pembayaran&amp;nbsp;&lt;/h3&gt;" style="text;html=1;align=center;verticalAlign=middle;resizable=0;points=[];autosize=1;strokeColor=none;fillColor=none;" vertex="1" parent="1">
          <mxGeometry x="400" y="660" width="160" height="60" as="geometry" />
        </mxCell>
        <mxCell id="CZ2UjE0eVjBWocA2L3Z2-25" style="edgeStyle=orthogonalEdgeStyle;rounded=0;orthogonalLoop=1;jettySize=auto;html=1;entryX=0.5;entryY=0.011;entryDx=0;entryDy=0;entryPerimeter=0;" edge="1" parent="1" source="CZ2UjE0eVjBWocA2L3Z2-20" target="CZ2UjE0eVjBWocA2L3Z2-22">
          <mxGeometry relative="1" as="geometry" />
        </mxCell>
        <mxCell id="CZ2UjE0eVjBWocA2L3Z2-26" value="&lt;h3&gt;COD&lt;/h3&gt;" style="text;html=1;align=center;verticalAlign=middle;resizable=0;points=[];autosize=1;strokeColor=none;fillColor=none;" vertex="1" parent="1">
          <mxGeometry x="615" y="753" width="50" height="60" as="geometry" />
        </mxCell>
        <mxCell id="CZ2UjE0eVjBWocA2L3Z2-27" style="edgeStyle=orthogonalEdgeStyle;rounded=0;orthogonalLoop=1;jettySize=auto;html=1;entryX=0.553;entryY=0.006;entryDx=0;entryDy=0;entryPerimeter=0;" edge="1" parent="1" source="CZ2UjE0eVjBWocA2L3Z2-22" target="CZ2UjE0eVjBWocA2L3Z2-26">
          <mxGeometry relative="1" as="geometry" />
        </mxCell>
        <mxCell id="CZ2UjE0eVjBWocA2L3Z2-28" value="&lt;h3&gt;Debit&lt;/h3&gt;" style="text;html=1;align=center;verticalAlign=middle;resizable=0;points=[];autosize=1;strokeColor=none;fillColor=none;" vertex="1" parent="1">
          <mxGeometry x="255" y="743" width="60" height="60" as="geometry" />
        </mxCell>
        <mxCell id="CZ2UjE0eVjBWocA2L3Z2-29" style="edgeStyle=orthogonalEdgeStyle;rounded=0;orthogonalLoop=1;jettySize=auto;html=1;entryX=0.461;entryY=-0.039;entryDx=0;entryDy=0;entryPerimeter=0;" edge="1" parent="1" source="CZ2UjE0eVjBWocA2L3Z2-22" target="CZ2UjE0eVjBWocA2L3Z2-28">
          <mxGeometry relative="1" as="geometry" />
        </mxCell>
      </root>
    </mxGraphModel>
  </diagram>
</mxfile>
